#define slash_width 16
#define slash_height 16
static unsigned char slash_bits[] = {
   0x11, 0x11, 0x00, 0x00, 0x11, 0x11, 0x00, 0x00, 0x11, 0x11, 0x00, 0x00,
   0x11, 0x11, 0x00, 0x00, 0x11, 0x11, 0x00, 0x00, 0x11, 0x11, 0x00, 0x00,
   0x11, 0x11, 0x00, 0x00, 0x11, 0x11, 0x00, 0x00 };
